<?xml version="1.0" encoding="UTF-8"?>
<svg id="Layer_2" data-name="Layer 2" xmlns="http://www.w3.org/2000/svg" viewBox="0 0 602.63 83.93">
  <defs>
    <style>
      .cls-1 {
        fill: #b99356;
        font-family: Roboto-Black, Roboto;
        font-size: 29px;
        font-weight: 800;
      }

      .cls-2 {
        fill: #fff;
      }

      .cls-3 {
        fill: #b78c47;
      }
    </style>
  </defs>
  <g>
    <g>
      <path class="cls-3" d="m45.62,50.08c-5.89,2.63-11.41,4.29-16.38,4.52l4.86,5.88c-4.28-.32-8.14-3.19-11.77-7.49,1.03-.19,2.02-.11,2.93.36-1.14-3.94-4.23-6.06-7.82-7.71-1.42,3.63-.88,7.2.8,10.73l1.83-2.69c5.24,11.79,13.56,9.35,25.46,16.92"/>
      <path class="cls-2" d="m26.13,58.15c4.09,2.8,5.09,2.82,8.4,3.09l.64,1.03c-3.9.02-7.89-1.75-9.03-4.12Z"/>
      <path class="cls-2" d="m17.7,46.98l2.31,6.2-1.45,1.84c-1.52-2.57-1.94-5.47-.86-8.04Z"/>
    </g>
    <g>
      <path class="cls-3" d="m45.47,50.08c5.89,2.63,11.41,4.29,16.38,4.52l-4.86,5.88c4.28-.32,8.14-3.19,11.77-7.49-1.03-.19-2.02-.11-2.93.36,1.14-3.94,4.23-6.06,7.82-7.71,1.42,3.63.88,7.2-.8,10.73l-1.83-2.69c-5.24,11.79-13.56,9.35-25.46,16.92"/>
      <path class="cls-2" d="m64.96,58.15c-4.09,2.8-5.09,2.82-8.4,3.09l-.64,1.03c3.9.02,7.89-1.75,9.03-4.12Z"/>
      <path class="cls-2" d="m73.4,46.98l-2.31,6.2,1.45,1.84c1.52-2.57,1.94-5.47.86-8.04Z"/>
    </g>
    <g>
      <polygon class="cls-3" points="36.43 45.42 45.25 41.72 54.68 45.17 54.71 48.31 45.43 45.07 36.46 48.41 36.43 45.42"/>
      <ellipse class="cls-2" cx="38.9" cy="45.94" rx=".33" ry=".43"/>
      <ellipse class="cls-2" cx="52.31" cy="45.94" rx=".33" ry=".43"/>
      <ellipse class="cls-2" cx="41.09" cy="44.97" rx=".52" ry=".53"/>
      <ellipse class="cls-2" cx="49.98" cy="45" rx=".55" ry=".55"/>
      <ellipse class="cls-2" cx="44.06" cy="44.04" rx=".58" ry=".58"/>
      <ellipse class="cls-2" cx="47.19" cy="43.99" rx=".58" ry=".58"/>
    </g>
    <g>
      <g>
        <path class="cls-3" d="m29.22,54.24c-.1,0-.18-.08-.18-.18l-.04-2.47c0-.08.05-.15.12-.17l16.45-5.84c.05-.02.11-.01.16.02.05.03.08.09.08.14l.05,3.93c0,.1-.08.18-.18.18-.1,0-.18-.08-.18-.18l-.05-3.68-16.09,5.71.03,2.35c0,.1-.08.18-.18.18h0Z"/>
        <path class="cls-3" d="m31.64,54.04c-.1,0-.18-.08-.18-.18l-.03-3c0-.1.08-.18.18-.18h0c.1,0,.18.08.18.18l.03,3c0,.1-.08.18-.18.18h0Z"/>
        <path class="cls-3" d="m36.39,53.23c-.1,0-.18-.08-.18-.18v-3.91c0-.1.08-.18.18-.18s.18.08.18.18v3.91c0,.1-.08.18-.18.18Z"/>
        <path class="cls-3" d="m38.88,52.49c-.1,0-.18-.08-.18-.18v-3.91c0-.1.08-.18.18-.18s.18.08.18.18v3.91c0,.1-.08.18-.18.18Z"/>
        <path class="cls-3" d="m41.41,51.34c-.1,0-.18-.08-.18-.18v-3.91c0-.1.08-.18.18-.18s.18.08.18.18v3.91c0,.1-.08.18-.18.18Z"/>
        <path class="cls-3" d="m33.93,53.57c-.1,0-.18-.08-.18-.18l-.03-3.4c0-.1.08-.18.18-.18h0c.1,0,.18.08.18.18l.03,3.4c0,.1-.08.18-.18.18h0Z"/>
      </g>
      <g>
        <path class="cls-3" d="m62.09,54.24c.1,0,.18-.08.18-.18l.04-2.47c0-.08-.05-.15-.12-.17l-16.45-5.84c-.05-.02-.11-.01-.16.02-.05.03-.08.09-.08.14l-.05,3.93c0,.1.08.18.18.18.1,0,.18-.08.18-.18l.05-3.68,16.09,5.71-.03,2.35c0,.1.08.18.18.18h0Z"/>
        <path class="cls-3" d="m59.67,54.04c.1,0,.18-.08.18-.18l.03-3c0-.1-.08-.18-.18-.18h0c-.1,0-.18.08-.18.18l-.03,3c0,.1.08.18.18.18h0Z"/>
        <path class="cls-3" d="m54.92,53.23c.1,0,.18-.08.18-.18v-3.91c0-.1-.08-.18-.18-.18s-.18.08-.18.18v3.91c0,.1.08.18.18.18Z"/>
        <path class="cls-3" d="m52.43,52.49c.1,0,.18-.08.18-.18v-3.91c0-.1-.08-.18-.18-.18s-.18.08-.18.18v3.91c0,.1.08.18.18.18Z"/>
        <path class="cls-3" d="m49.9,51.34c.1,0,.18-.08.18-.18v-3.91c0-.1-.08-.18-.18-.18s-.18.08-.18.18v3.91c0,.1.08.18.18.18Z"/>
        <path class="cls-3" d="m57.38,53.57c.1,0,.18-.08.18-.18l.03-3.4c0-.1-.08-.18-.18-.18h0c-.1,0-.18.08-.18.18l-.03,3.4c0,.1.08.18.18.18h0Z"/>
      </g>
    </g>
    <g>
      <polygon class="cls-3" points="45.33 39.49 40.46 41.51 40.52 43.3 45.41 41.2 50.68 43.06 50.62 41.44 45.33 39.49"/>
      <rect class="cls-3" x="43.88" y="36.39" width="3.38" height="3.95"/>
    </g>
    <g>
      <rect class="cls-3" x="43.36" y="18.45" width="4.31" height="15.12"/>
      <rect class="cls-3" x="32.27" y="25.37" width="24.89" height="2.8"/>
      <ellipse class="cls-3" cx="45.42" cy="14.45" rx="5.66" ry="5.05"/>
      <ellipse class="cls-2" cx="45.45" cy="14.55" rx="3.7" ry="3.27"/>
      <g>
        <circle class="cls-3" cx="32.18" cy="26.62" r="2.4"/>
        <path class="cls-2" d="m32.18,28.53c-1.41.17-2.48-1.42-1.89-2.69.3-.73,1.12-1.23,1.89-1.13-.98.1-1.78.93-1.77,1.91-.01.98.79,1.81,1.77,1.91h0Z"/>
      </g>
      <g>
        <circle class="cls-3" cx="58.95" cy="26.62" r="2.4"/>
        <path class="cls-2" d="m58.95,24.71c1.41-.17,2.48,1.42,1.89,2.69-.3.73-1.12,1.23-1.89,1.13.98-.1,1.78-.93,1.77-1.91.01-.98-.79-1.81-1.77-1.91h0Z"/>
      </g>
      <rect class="cls-3" x="40.45" y="24.94" width="10.24" height="3.62"/>
      <path class="cls-2" d="m45.33,26.64c.29,2.16-4.43,8.94-.44,9.25,5.95.46,1.64-6.85.44-9.25Z"/>
      <path class="cls-3" d="m45.55,30.17c.99.66.12,2-.18,2.78-.34.83-.29,1.82.1,2.66l-.16.07c-.39-.83.98-1.62.5-2.35-.14-.16.11-.37.25-.22.38.43.14,1.04-.15,1.41-.27.35-.52.7-.42,1.1l.13.52c-.73-.94-1.08-2.18-.64-3.35.45-.97.73-1.61.58-2.64h0Z"/>
    </g>
  </g>
  <text class="cls-1" transform="translate(89.5 53.22)"><tspan x="0" y="0" xml:space="preserve">GOLDEN  HEARTMARINE SL. LIMITED.</tspan></text>
</svg>