<?xml version="1.0" encoding="UTF-8"?>
<svg id="Layer_2" data-name="Layer 2" xmlns="http://www.w3.org/2000/svg" viewBox="0 0 460.92 120">
  <defs>
    <style>
      .cls-1 {
        font-family: Roboto-Black, Roboto;
        font-size: 29px;
        font-weight: 800;
      }

      .cls-1, .cls-2 {
        fill: #b78c47;
      }
    </style>
  </defs>
  <text class="cls-1" transform="translate(114.92 52.62)"><tspan x="0" y="0" xml:space="preserve">GOLDEN  HEART MARINE</tspan><tspan x="0" y="34.8">SL. LIMITED</tspan></text>
  <g>
    <path class="cls-2" d="m36.2,78.31l7.06,8.54c-6.21-.47-11.82-4.63-17.09-10.87,1.5-.27,2.93-.16,4.25.52-1.66-5.73-6.14-8.81-11.36-11.2-2.06,5.27-1.28,10.45,1.17,15.59l2.66-3.91c7.61,17.12,19.69,13.57,36.97,24.57l.13-29.8c-8.55,3.82-16.56,6.22-23.79,6.57Zm-15.51.59c-2.21-3.73-2.82-7.94-1.25-11.67l3.35,9-2.1,2.67Zm11,4.55c5.94,4.07,7.39,4.1,12.19,4.49l.92,1.5c-5.66.03-11.45-2.55-13.12-5.99Z"/>
    <path class="cls-2" d="m100.7,65.3c-5.22,2.39-9.7,5.47-11.36,11.2,1.32-.67,2.75-.79,4.25-.52-5.27,6.24-10.88,10.41-17.09,10.87l7.06-8.54c-7.23-.34-15.24-2.75-23.79-6.57l.13,29.8c17.28-10.99,29.36-7.45,36.97-24.57l2.66,3.91c2.45-5.13,3.22-10.31,1.17-15.59Zm-25.74,24.14l.92-1.5c4.81-.4,6.26-.43,12.19-4.49-1.66,3.44-7.45,6.02-13.12,5.99Zm24.11-10.54l-2.1-2.67,3.35-9c1.57,3.73.96,7.94-1.25,11.67Z"/>
    <path class="cls-2" d="m73.14,64.61l-13.68-5.02-12.82,5.38.05,4.33,13.02-4.85,13.49,4.71-.05-4.56Zm-22.91,1.73c-.27,0-.49-.28-.49-.62s.22-.62.49-.62.49.28.49.62-.22.62-.49.62Zm3.17-1.27c-.42,0-.76-.34-.76-.77s.34-.77.76-.77.76.34.76.77-.34.77-.76.77Zm4.31-1.26c-.46,0-.84-.38-.84-.85s.38-.85.84-.85.84.38.84.85-.38.85-.84.85Zm4.55-.07c-.46,0-.84-.38-.84-.85s.38-.85.84-.85.84.38.84.85-.38.85-.84.85Zm4.05,1.42c-.44,0-.79-.36-.79-.8s.36-.8.79-.8.79.36.79.8-.36.8-.79.8Zm3.39,1.18c-.27,0-.49-.28-.49-.62s.22-.62.49-.62.49.28.49.62-.22.62-.49.62Z"/>
    <g>
      <g>
        <path class="cls-2" d="m36.17,77.78c-.14,0-.26-.11-.26-.26l-.05-3.59c0-.11.07-.21.17-.25l23.89-8.48c.08-.03.17-.02.24.03.07.05.11.13.11.21l.08,5.71c0,.14-.11.26-.26.26-.15,0-.26-.11-.26-.26l-.07-5.35-23.37,8.3.05,3.41c0,.14-.11.26-.26.26h0Z"/>
        <path class="cls-2" d="m39.69,77.49c-.14,0-.26-.11-.26-.26l-.05-4.35c0-.14.11-.26.26-.26h0c.14,0,.26.11.26.26l.05,4.35c0,.14-.11.26-.26.26h0Z"/>
        <path class="cls-2" d="m46.59,76.31c-.14,0-.26-.12-.26-.26v-5.67c0-.14.12-.26.26-.26s.26.12.26.26v5.67c0,.14-.12.26-.26.26Z"/>
        <path class="cls-2" d="m50.2,75.24c-.14,0-.26-.12-.26-.26v-5.67c0-.14.12-.26.26-.26s.26.12.26.26v5.67c0,.14-.12.26-.26.26Z"/>
        <path class="cls-2" d="m53.87,73.58c-.14,0-.26-.12-.26-.26v-5.67c0-.14.12-.26.26-.26s.26.12.26.26v5.67c0,.14-.12.26-.26.26Z"/>
        <path class="cls-2" d="m43.02,76.8c-.14,0-.26-.11-.26-.26l-.05-4.94c0-.14.11-.26.26-.26h0c.14,0,.26.11.26.26l.05,4.94c0,.14-.11.26-.26.26h0Z"/>
      </g>
      <g>
        <path class="cls-2" d="m83.91,77.78c.14,0,.26-.11.26-.26l.05-3.59c0-.11-.07-.21-.17-.25l-23.89-8.48c-.08-.03-.17-.02-.24.03-.07.05-.11.13-.11.21l-.08,5.71c0,.14.11.26.26.26.15,0,.26-.11.26-.26l.07-5.35,23.37,8.3-.05,3.41c0,.14.11.26.26.26h0Z"/>
        <path class="cls-2" d="m80.39,77.49c.14,0,.26-.11.26-.26l.05-4.35c0-.14-.11-.26-.26-.26h0c-.14,0-.26.11-.26.26l-.05,4.35c0,.14.11.26.26.26h0Z"/>
        <path class="cls-2" d="m73.49,76.31c.14,0,.26-.12.26-.26v-5.67c0-.14-.12-.26-.26-.26s-.26.12-.26.26v5.67c0,.14.12.26.26.26Z"/>
        <path class="cls-2" d="m69.88,75.24c.14,0,.26-.12.26-.26v-5.67c0-.14-.12-.26-.26-.26s-.26.12-.26.26v5.67c0,.14.12.26.26.26Z"/>
        <path class="cls-2" d="m66.21,73.58c.14,0,.26-.12.26-.26v-5.67c0-.14-.12-.26-.26-.26s-.26.12-.26.26v5.67c0,.14.12.26.26.26Z"/>
        <path class="cls-2" d="m77.06,76.8c.14,0,.26-.11.26-.26l.05-4.94c0-.14-.11-.26-.26-.26h0c-.14,0-.26.11-.26.26l-.05,4.94c0,.14.11.26.26.26h0Z"/>
      </g>
    </g>
    <g>
      <polygon class="cls-2" points="59.57 56.36 52.5 59.29 52.59 61.9 59.69 58.85 67.33 61.55 67.25 59.2 59.57 56.36"/>
      <rect class="cls-2" x="57.46" y="51.85" width="4.91" height="5.74"/>
    </g>
    <g>
      <rect class="cls-2" x="40.61" y="33.25" width="36.14" height="4.07"/>
      <path class="cls-2" d="m59.7,12.67c-4.54,0-8.22,3.28-8.22,7.33s3.68,7.33,8.22,7.33,8.22-3.28,8.22-7.33-3.68-7.33-8.22-7.33Zm.05,12.23c-2.97,0-5.37-2.13-5.37-4.75s2.41-4.75,5.37-4.75,5.37,2.13,5.37,4.75-2.41,4.75-5.37,4.75Z"/>
      <path class="cls-2" d="m40.48,31.59c-1.93,0-3.49,1.56-3.49,3.49s1.56,3.49,3.49,3.49,3.49-1.56,3.49-3.49-1.56-3.49-3.49-3.49Zm0,6.26c-2.05.25-3.6-2.06-2.74-3.91.44-1.06,1.62-1.79,2.74-1.64-1.42.14-2.59,1.35-2.57,2.77-.02,1.42,1.15,2.63,2.57,2.77Z"/>
      <path class="cls-2" d="m79.35,31.59c-1.93,0-3.49,1.56-3.49,3.49s1.56,3.49,3.49,3.49,3.49-1.56,3.49-3.49-1.56-3.49-3.49-3.49Zm0,6.26c1.42-.14,2.59-1.35,2.57-2.77.02-1.42-1.15-2.63-2.57-2.77,2.05-.25,3.6,2.06,2.74,3.91-.44,1.06-1.62,1.79-2.74,1.64Z"/>
      <rect class="cls-2" x="52.48" y="32.63" width="14.88" height="5.26"/>
      <path class="cls-2" d="m59.56,37.7c.81,1.62,2.59,4.77,3.4,7.62v-19.52h-6.26v21.66c.58-3.26,3.12-7.81,2.86-9.76Z"/>
      <path class="cls-2" d="m59.86,42.84c.46.56.45,1.39.23,2.09s-.6,1.33-.83,2.02c-.42,1.26-.27,2.69.4,3.84-.13-.41-.02-.84.2-1.21s.51-.7.68-1.1.19-.9-.09-1.22"/>
    </g>
  </g>
</svg>