<?xml version="1.0" encoding="utf-8"?>
<!-- Generator: Adobe Illustrator 24.0.1, SVG Export Plug-In . SVG Version: 6.00 Build 0)  -->
<svg version="1.1" id="scadLogo" xmlns="http://www.w3.org/2000/svg" xmlns:xlink="http://www.w3.org/1999/xlink" x="0px" y="0px"
	 viewBox="0 0 400 87.4" style="enable-background:new 0 0 400 87.4;" xml:space="preserve">
<style type="text/css">
	.st0{fill:#FFFFFF;}
	.st1{fill-rule:evenodd;clip-rule:evenodd;fill:#FFFFFF;}
	.st2{opacity:0.5;}
	.st3{opacity:0.5;fill:#FFFFFF;}
</style>
<title>SCAD</title>
<g>
	<g>
		<g>
			<g>
				<path class="st0" d="M120.6,71.3c-1.8-0.3-3.7-0.6-5.5-0.9c-0.5-0.1-0.9-0.2-1.4-0.2c-0.1,0-0.2,0.1-0.3,0.1
					c-0.3,0.1-0.5,0.2-0.8,0.3c-1.8,0.6-3.6,1.2-5.3,1.8c-0.7,0.2-1.4,0.5-2.1,0.7c0.1,0,0.1,0,0.2,0.1c-1.6-2.4-3.3-4.8-4.9-7.2
					c0,0-0.1-0.1-0.1-0.1c0-0.1-0.2-0.1-0.2,0c-2.6,1.3-5.1,2.5-7.7,3.8c-1.9,0.9-2.8,1.9-4.7,2.8c-0.2,0.1,0,0.4,0.2,0.3l0,0
					c2.6-1.3,4.1-2.5,6.7-3.8c1.9-0.9,3.8-1.9,5.7-2.8c-0.1,0-0.1,0-0.2,0c1.6,2.4,3.3,4.8,4.9,7.2c0,0,0.1,0.1,0.1,0.1
					c0,0,0.1,0.1,0.2,0.1c2.8-0.9,5.5-1.8,8.3-2.8c0,0,0.1,0,0.1,0c0,0,0,0,0,0c0.2,0,0.4,0.1,0.6,0.1c0.8,0.1,1.7,0.3,2.5,0.4"/>
			</g>
			<path class="st0" d="M101.3,66.7c-0.4,0.6-1.2,0.8-1.8,0.4c-0.6-0.4-0.8-1.2-0.4-1.8c0.4-0.6,1.2-0.8,1.8-0.4
				C101.5,65.2,101.7,66.1,101.3,66.7z"/>
			<path class="st0" d="M106.8,74.1c-0.5,0.8-1.6,1-2.4,0.5c-0.8-0.5-1-1.6-0.5-2.4c0.5-0.8,1.6-1,2.4-0.5
				C107.1,72.2,107.3,73.3,106.8,74.1z"/>
			<path class="st0" d="M114.5,71c-0.3,0.5-0.9,0.6-1.4,0.3c-0.5-0.3-0.6-0.9-0.3-1.4c0.3-0.5,0.9-0.6,1.4-0.3
				C114.7,69.9,114.8,70.5,114.5,71z"/>
		</g>
		<path class="st1" d="M119.7,58.1c1.7,2.7,2.8,5.9,2.9,9.3l0,0V86h-6.1v-4.6c-3.2,2.9-7.5,4.6-12.1,4.6c-10,0-18.1-8.1-18.1-18.1
			c0-9.2,6.9-16.8,15.7-18c-0.1,2.2-0.2,4.3-0.2,6.5c-5.3,1.2-9.2,6-9.2,11.5c0,6.5,5.3,11.8,11.8,11.8c6.5,0,11.9-5.3,11.9-11.8
			c0-2.5-0.8-4.9-2.2-6.8C116,60.1,117.8,59.1,119.7,58.1L119.7,58.1z"/>
		<path class="st1" d="M140.7,56.1h4.5v-6.3h-4.9c-6.1,0-11.3,4.7-11.8,10.7v25.9h7.5V60.5c-0.1-2.7,1.7-4.5,4.4-4.4H140.7
			L140.7,56.1z"/>
		<path class="st1" d="M149.2,75.3L149.2,75.3c0.7,5.9,5.8,10.5,11.8,10.5h5v-6.3h-4.5h-0.5c-2.7,0.1-5.1-1.7-5.1-4.4l0,0V55.8h8.2
			v-6.7h-8.4v-6.8h-6.6V75.3L149.2,75.3z"/>
		<path class="st1" d="M0,75.6l7.2-0.7c0.6,2.9,6.2,4.5,8.7,4.8c2.1,0.3,8.5-1.3,8.5-4.6c0-6.3-10.7-4.2-16.4-6
			c-4.6-1.5-7.2-4.2-7.2-9c0-7.5,8.2-12.3,14.6-12.3c4.6,0,8.1,1,10.5,3c2.3,2.1,4.1,4.6,4.2,8l-7.5,0.3c-0.4-2.5-3-4.3-6.3-4.4
			c-2.2-0.1-5.3,1.1-6.5,1.9c-1.7,1.2-0.9,5.8,0.9,6.5c5.9,1.9,10.8-0.4,15.4,2c3.7,1.8,5.3,6.6,5.3,9.5c0,8.4-8.5,11.5-15.7,11.5
			C9.7,86.1,0.7,82.8,0,75.6L0,75.6z"/>
		<g>
			<path class="st1" d="M36.3,64.6h7.4v-4.2h0.1c-0.1-0.1-0.1-0.1-0.1-0.2v-0.3c0.1-2.5,2.8-4.6,5.6-4.6c2.8,0,5.6,2.2,5.6,4.6h-0.1
				v4.6h7.5v-4.2v-0.1c0-0.1,0-0.3,0-0.3c0-0.1,0-0.2,0-0.2c0.3-2.5,3.6-4.6,6.2-4.6c2.9,0,5.8,2.4,5.6,5.1h0.1v4.2h7.4v-4.2
				c0-0.1,0-0.3,0-0.4c0-6.7-5.8-12.2-13-12.2c-3.8,0-7.2,1.6-9.6,4c-2.4-2.4-5.8-3.9-9.6-3.9c-7.1,0-13,5.5-13,12.2
				c0,0.2,0,0.3,0,0.4h0.1V64.6z"/>
		</g>
		<rect x="54.8" y="71.4" class="st0" width="7.5" height="14.6"/>
		<rect x="74.1" y="76.8" class="st0" width="7.4" height="9.2"/>
		<rect x="36.3" y="66.9" class="st0" width="7.4" height="19.1"/>
		<g class="st2">
			<path class="st0" d="M194,58.2c-0.7-1-1.6-1.7-2.7-2.1c-1.1-0.5-2.3-0.7-3.6-0.7c-0.7,0-1.5,0.1-2.2,0.3
				c-0.7,0.2-1.3,0.4-1.9,0.8c-0.6,0.4-1,0.9-1.3,1.4c-0.3,0.6-0.5,1.3-0.5,2.1c0,1.2,0.4,2.1,1.3,2.8c0.9,0.6,1.9,1.2,3.1,1.7
				c1.2,0.5,2.6,0.9,4.1,1.4c1.5,0.4,2.9,1.1,4.1,1.8c1.2,0.8,2.3,1.8,3.1,3.1c0.8,1.3,1.3,3,1.3,5.1c0,1.9-0.4,3.6-1.1,5
				s-1.7,2.6-2.9,3.6s-2.6,1.7-4.2,2.1c-1.6,0.5-3.3,0.7-5,0.7c-2.2,0-4.4-0.4-6.4-1.1c-2-0.7-3.8-2-5.3-3.8l4.8-4.6
				c0.8,1.2,1.8,2.1,3,2.8c1.3,0.7,2.6,1,4,1c0.7,0,1.5-0.1,2.2-0.3s1.4-0.5,2-0.9c0.6-0.4,1.1-0.9,1.5-1.5c0.4-0.6,0.6-1.3,0.6-2.2
				c0-1.3-0.4-2.3-1.3-3c-0.8-0.7-1.9-1.3-3.2-1.8c-1.3-0.5-2.6-1-4.1-1.4s-2.8-1-4.1-1.8c-1.2-0.8-2.3-1.8-3.1-3
				c-0.9-1.3-1.3-3-1.3-5.1c0-1.8,0.4-3.4,1.1-4.8s1.8-2.5,3-3.4s2.6-1.6,4.2-2c1.6-0.4,3.2-0.7,4.9-0.7c1.9,0,3.8,0.3,5.5,0.9
				s3.3,1.5,4.8,2.9L194,58.2z"/>
			<path class="st0" d="M233.6,73.3c0,2.2-0.4,4.1-1.1,5.9s-1.8,3.2-3,4.4c-1.3,1.2-2.8,2.1-4.5,2.8c-1.8,0.7-3.7,1-5.7,1
				c-2.1,0-4-0.3-5.7-1c-1.8-0.7-3.3-1.6-4.6-2.8s-2.3-2.7-3-4.4c-0.7-1.7-1.1-3.7-1.1-5.9V50.6h6.4V73c0,0.9,0.1,1.8,0.4,2.8
				c0.3,1,0.7,1.8,1.3,2.7s1.5,1.5,2.5,2s2.3,0.8,3.8,0.8s2.8-0.3,3.8-0.8c1-0.5,1.9-1.2,2.5-2s1.1-1.7,1.3-2.7
				c0.3-1,0.4-1.9,0.4-2.8V50.6h6.4V73.3z"/>
			<path class="st0" d="M241.4,50.6h12.1c1.7,0,3.4,0.2,5,0.5s3,0.9,4.2,1.7s2.2,1.9,2.9,3.2c0.7,1.3,1.1,3,1.1,5
				c0,2.2-0.4,4.1-1.2,5.5c-0.8,1.4-1.8,2.5-3.1,3.2s-2.8,1.3-4.6,1.5c-1.7,0.3-3.6,0.4-5.4,0.4h-4.6v14.9h-6.4V50.6z M251.6,66.1
				c0.9,0,1.9,0,2.8-0.1c1-0.1,1.9-0.3,2.7-0.6c0.8-0.3,1.5-0.9,2-1.5c0.5-0.7,0.8-1.6,0.8-2.9c0-1.1-0.2-2-0.7-2.7
				c-0.5-0.7-1.1-1.2-1.8-1.5c-0.7-0.4-1.6-0.6-2.5-0.7c-0.9-0.1-1.8-0.1-2.6-0.1h-4.6v10.1H251.6z"/>
			<path class="st0" d="M272.1,50.6h12.1c1.7,0,3.4,0.2,5,0.5s3,0.9,4.2,1.7s2.2,1.9,2.9,3.2c0.7,1.3,1.1,3,1.1,5
				c0,2.2-0.4,4.1-1.2,5.5c-0.8,1.4-1.8,2.5-3.1,3.2c-1.3,0.8-2.8,1.3-4.6,1.5c-1.7,0.3-3.6,0.4-5.4,0.4h-4.6v14.9h-6.4V50.6z
				 M282.4,66.1c0.9,0,1.9,0,2.8-0.1c1-0.1,1.9-0.3,2.7-0.6c0.8-0.3,1.5-0.9,2-1.5c0.5-0.7,0.8-1.6,0.8-2.9c0-1.1-0.2-2-0.7-2.7
				c-0.5-0.7-1.1-1.2-1.8-1.5c-0.7-0.4-1.6-0.6-2.5-0.7c-0.9-0.1-1.8-0.1-2.6-0.1h-4.6v10.1H282.4z"/>
			<path class="st0" d="M301.1,68.6c0-2.9,0.5-5.5,1.4-7.8c1-2.3,2.3-4.3,3.9-6s3.7-2.9,6-3.8c2.3-0.9,4.9-1.4,7.6-1.4
				c2.8,0,5.3,0.4,7.7,1.3c2.4,0.9,4.4,2.1,6,3.8c1.7,1.6,3,3.6,3.9,5.9c1,2.3,1.4,4.9,1.4,7.8c0,2.8-0.5,5.4-1.4,7.7
				c-1,2.3-2.3,4.3-3.9,6s-3.7,3-6,3.9c-2.4,0.9-4.9,1.4-7.7,1.4c-2.8,0-5.3-0.5-7.6-1.4c-2.3-0.9-4.3-2.2-6-3.8s-3-3.6-3.9-5.9
				C301.6,74,301.1,71.5,301.1,68.6z M307.8,68.2c0,1.9,0.3,3.7,0.9,5.3c0.6,1.6,1.4,3,2.5,4.2s2.4,2.1,3.9,2.8c1.5,0.7,3.2,1,5.1,1
				s3.6-0.3,5.1-1c1.5-0.7,2.8-1.6,3.9-2.8s1.9-2.6,2.5-4.2s0.9-3.4,0.9-5.3c0-1.8-0.3-3.5-0.9-5s-1.4-2.9-2.5-4.1
				c-1.1-1.2-2.4-2.1-3.9-2.7c-1.5-0.7-3.2-1-5.1-1s-3.5,0.3-5.1,1s-2.8,1.6-3.9,2.7c-1.1,1.2-1.9,2.5-2.5,4.1
				C308.1,64.8,307.8,66.4,307.8,68.2z"/>
			<path class="st0" d="M344.7,50.6h12.5c1.7,0,3.4,0.2,5,0.5c1.6,0.3,3,0.9,4.3,1.6c1.2,0.8,2.2,1.8,3,3.1c0.7,1.3,1.1,3,1.1,5
				c0,2.6-0.7,4.8-2.1,6.6c-1.4,1.7-3.5,2.8-6.1,3.2l9.5,15.9h-7.7l-8.3-15.2h-4.6v15.2h-6.4V50.6z M356.1,65.7c0.9,0,1.8,0,2.7-0.1
				s1.8-0.3,2.5-0.6c0.8-0.3,1.4-0.8,1.8-1.5c0.5-0.7,0.7-1.6,0.7-2.8c0-1.1-0.2-1.9-0.7-2.5c-0.4-0.6-1-1.1-1.7-1.5
				s-1.5-0.5-2.4-0.6c-0.9-0.1-1.7-0.1-2.5-0.1h-5.5v9.7H356.1z"/>
			<path class="st0" d="M382.6,56.3h-11v-5.8H400v5.8h-11v30.1h-6.4V56.3z"/>
		</g>
	</g>
	<g>
		<path class="st3" d="M19.8,22.1h-3.6c-2.6,0-4.7-1.7-5.4-4.4c-1,1.5-2.3,2.2-3.8,2.2c-3.8,0-6.1-2.8-6.1-7c0-4.4,2.3-7.2,6.1-7.2
			h7.3v9.4c0,2.3,1.1,3.6,3.3,3.6h2.1V22.1z M11,12.6V8.3H8c-2.3,0-3.7,1.8-3.7,4.6c0,2.3,1.3,4.2,3.3,4.2C9.7,17.1,11,15.1,11,12.6
			z M8.5,3.3H5.3V0h3.3V3.3z M14.1,3.3h-3.3V0h3.3V3.3z"/>
		<path class="st3" d="M22,28.6h-3.3v-3.3H22V28.6z M32.6,22.1H18.9v-3.4h3.2c1,0,1.7-0.3,2-1c0.2-0.4,0.4-1.2,0.4-2.3V8.6h3.3v6.6
			c0,1.7-0.2,2.9-0.7,3.4h5.6V22.1z M27.6,28.6h-3.3v-3.3h3.3V28.6z"/>
		<path class="st3" d="M51.6,20v2.1H31.8v-3.4H48c0-1.8-0.5-3.4-1.6-4.7c-1.2-1.5-3-2.3-5.1-2.3h-6.9l5.8-8.8h3.9l-4,5.7h1.5
			c2.2,0,4.1,0.5,5.7,1.6C50.2,12.1,51.6,15.3,51.6,20z"/>
		<path class="st3" d="M73.6,22.1H54.4v-3.4h10.7c0-3.9-1.5-6.1-4.5-6.8c-0.9-0.2-1.9-0.3-3-0.3v-3c1.6,0,2.7,0,3.1,0.1
			c0.4,0,1,0.1,1.8,0.4c4,1.3,6,4.5,6,9.6h5.2V22.1z M62.4,5.8h-3.2V2.5h3.2V5.8z"/>
		<path class="st3" d="M80.6,16.7c0,3.6-1.7,5.4-5,5.4h-3.5v-3.4H75c1.1,0,1.8-0.3,2.1-1c0.1-0.4,0.2-1.1,0.2-2.1V2.9h3.3V16.7z"/>
		<path class="st3" d="M87,22.1h-3.3V2.9H87V22.1z"/>
		<path class="st0" d="M122,18.7v3.4c-3.6,0-4.7-0.6-6.1-2.6c-0.9,4.6-4.9,7.5-9.8,7.5C100.5,27,96,22.5,96,16.7v-3.3h3.3v2.9
			c0,4.6,2.7,7.5,7,7.5c3.9,0,6.8-2.6,6.8-5.6c0-1.8-1.1-3.1-3-3.1c-0.2,0-0.4,0-0.5,0v-3h1.3c2.6,0,4.6,1.2,5.9,3.5
			c1.2,2.2,2.4,3.1,4.1,3.1H122z M105,33.5h-3.3v-3.3h3.3V33.5z M110.6,33.5h-3.3v-3.3h3.3V33.5z"/>
		<path class="st0" d="M138.5,17.9c0,3.9-2.7,6.9-6.6,6.9c-2.3,0-4.1-0.9-5.4-2.6h-5.3v-3.4h4.1l0-0.1c0-0.3-0.1-0.5-0.1-0.8
			c0-4,2.8-6.8,6.7-6.8C135.8,10.9,138.5,14,138.5,17.9z M135.1,17.9c0-2.3-1.4-3.9-3.3-3.9c-1.9,0-3.2,1.6-3.2,3.8s1.4,3.9,3.4,3.9
			C133.8,21.6,135.1,20.1,135.1,17.9z"/>
		<path class="st0" d="M158.2,22.1h-4c-0.4,3.3-2.6,4.9-6.5,4.9v-2.6c1.7,0,2.8-0.7,3.3-2.3h-3.2c-3.6,0-6.5-3-6.5-6.9
			s2.9-6.6,6.6-6.6c3.6,0,6.2,2.8,6.2,6.7v3.4h4.1V22.1z M150.8,18.7v-4.1c-0.2-1.8-1.2-3-2.9-3c-2,0-3.2,1.4-3.2,3.4
			c0,2,1.4,3.7,3.2,3.7H150.8z"/>
		<path class="st0" d="M180.7,22.1h-23.4v-3.4h16.3c0-1.8-0.5-3.4-1.6-4.7c-1.2-1.5-3-2.3-5.1-2.3h-6.9l5.8-8.8h3.9l-4,5.7h1.5
			c2,0,3.9,0.5,5.4,1.4c2.7,1.7,4.2,4.5,4.4,8.7h3.6V22.1z"/>
		<path class="st0" d="M203.7,22.1h-23.8v-3.4H197c0-1.8-0.5-3.4-1.5-4.7c-1.2-1.5-2.9-2.3-5.1-2.3c-0.7,0-1.6,0.2-2.5,0.6
			c-1.1,0.4-2,1.1-2.7,1.9c-0.3-0.6-0.9-1.5-1.6-2.6c0.9-0.9,2-1.6,3.2-2.1c1.3-0.6,2.6-0.8,3.9-0.8c2,0,3.9,0.5,5.4,1.4
			c2.7,1.7,4.2,4.5,4.4,8.7h3.1V22.1z"/>
		<path class="st0" d="M211.2,16.7c0,3.6-1.7,5.4-5,5.4h-3.5v-3.4h2.8c1.1,0,1.8-0.3,2.1-1c0.1-0.4,0.2-1.1,0.2-2.1V2.9h3.3V16.7z"
			/>
		<path class="st0" d="M217.6,22.1h-3.3V2.9h3.3V22.1z"/>
		<path class="st0" d="M241.6,22.1h-14.1v-3.4h10.7c0-3.9-1.5-6.1-4.5-6.8c-0.9-0.2-1.9-0.3-3-0.3v-3c1.6,0,2.7,0,3.1,0.1
			c0.4,0,1,0.1,1.8,0.4c4,1.3,6,4.5,6,9.6V22.1z"/>
		<path class="st0" d="M253.4,22.1h-3.9c-1.6,0-2.8-0.5-3.7-1.5c-0.8-0.9-1.2-2.2-1.2-3.9V2.9h3.3v12.4c0,1.5,0.3,2.4,0.9,2.8
			c0.4,0.3,1.3,0.5,2.6,0.5h2V22.1z"/>
		<path class="st0" d="M266,22.1h-13.7v-3.4h3.1c1,0,1.6-0.3,2-1c0.2-0.4,0.4-1.2,0.4-2.3V8.6h3.3v6.6c0,1.7-0.2,2.9-0.7,3.4h5.7
			V22.1z M261,5.9h-3.3V2.6h3.3V5.9z"/>
		<path class="st0" d="M265.2,18.7h2.4c1.7,0,2.5-1.2,2.5-3.5V8.6h3.4v6.5c0,1.7-0.2,2.9-0.5,3.4v0.2h3.1c1.7,0,2.5-1.1,2.5-3.3V8.6
			h3.4v6.5c0,1.9-0.2,3.1-0.7,3.6h3.2c1.7,0,2.5-1.1,2.5-3.3V8.6h3.4V15c0,4.3-2.4,7.1-5.8,7.1h-19.4V18.7z"/>
		<path class="st0" d="M307.6,2.9v14.5c0,2.8-2,4.7-5.2,4.7h-8.9v-3.4h4.5L294.3,5h3.5l3.7,13.6c0.9,0,1.6-0.2,2-0.7
			c0.6-0.6,0.8-1.5,0.8-2.8V2.9H307.6z M298.8,28.1h-5.1v-1.4h1.2c-0.2-0.6-0.3-0.9-0.3-1c0-1.4,1-2.5,2.3-2.5
			c0.8,0,1.5,0.4,1.9,1.4l-1.1,0.5c-0.1-0.4-0.4-0.7-0.8-0.7c-0.6,0-1,0.6-1,1.2c0,0.5,0.2,0.9,0.5,1.1h2.4V28.1z"/>
		<path class="st0" d="M314,22.1h-3.3V2.9h3.3V22.1z"/>
		<path class="st0" d="M341.9,22.1h-3.6c-2.6,0-4.7-1.7-5.4-4.4c-1,1.5-2.3,2.2-3.8,2.2c-3.8,0-6.1-2.8-6.1-7c0-4.4,2.3-7.2,6.1-7.2
			h7.3v9.4c0,2.3,1.1,3.6,3.3,3.6h2.1V22.1z M333.1,12.6V8.3h-3c-2.3,0-3.7,1.8-3.7,4.6c0,2.3,1.3,4.2,3.3,4.2
			C331.8,17.1,333.1,15.1,333.1,12.6z M330.6,3.3h-3.3V0h3.3V3.3z M336.2,3.3H333V0h3.3V3.3z"/>
		<path class="st0" d="M369.7,22.1h-29.4v-3.4h3.3c1.7,0,2.5-1.2,2.5-3.5V10h3.3v4.1c2.6-3.6,5.9-5.6,9.1-5.6c5,0,7.6,3.4,7.7,10.1
			h3.5V22.1z M362.8,18.7l0.1-0.9c0-3.8-1.8-6.2-4.6-6.2c-3.3,0-6.9,3.1-8.7,7.2H362.8z"/>
		<path class="st0" d="M382.6,22.1h-13.7v-3.4h3.1c1,0,1.6-0.3,2-1c0.2-0.4,0.4-1.2,0.4-2.3V8.6h3.3v6.6c0,1.7-0.2,2.9-0.7,3.4h5.7
			V22.1z M377.6,5.9h-3.3V2.6h3.3V5.9z"/>
		<path class="st0" d="M399,17.9c0,3.9-2.7,6.9-6.6,6.9c-2.3,0-4.1-0.9-5.4-2.6h-5.3v-3.4h4.1l0-0.1c0-0.3-0.1-0.5-0.1-0.8
			c0-4,2.8-6.8,6.7-6.8C396.3,10.9,399,14,399,17.9z M395.6,17.9c0-2.3-1.4-3.9-3.3-3.9c-1.9,0-3.2,1.6-3.2,3.8s1.4,3.9,3.4,3.9
			C394.3,21.6,395.6,20.1,395.6,17.9z"/>
	</g>
</g>
</svg>
